{"title":"The Counselor(2013).mp4","uid":9679914,"size":1354330118,"categoryP":"video","categoryS":"hd___movies","magnet":"?xt=urn:btih:384d0b7f2caf16136137151a9403be9f1a17f118&amp;dn=The+Counselor%282013%29.mp4&amp;tr=udp%3A%2F%2Ftracker.openbittorrent.com%3A80&amp;tr=udp%3A%2F%2Fopen.demonii.com%3A1337&amp;tr=udp%3A%2F%2Ftracker.coppersurfer.tk%3A6969&amp;tr=udp%3A%2F%2Fexodus.desync.com%3A6969","seeders":2,"leechers":0,"uploader":"PapaFatHead","files":1,"time":1393646897,"description":"IMDB Link:        &lt;a href=&quot; http://www.imdb.com/title/tt2193215/&quot; rel=&quot;nofollow&quot; target=&quot;_NEW&quot;&gt; http://www.imdb.com/title/tt2193215/&lt;/a&gt;\n\nIMDB Rating:       5.5   \n\nPlot:           \nA lawyer finds himself in over his head when he gets involved in drug trafficking.\n\n\nComplete name                  : The Counselor(2013).mp4\nFormat                         : MPEG-4\nFormat profile                 : Base Media / Version 2\nCodec ID                       : mp42\nFile size                      : 1.26 GiB\nDuration                       : 2h 17mn\nOverall bit rate mode          : Variable\nOverall bit rate               : 1 309 Kbps\n\nVideo\nID                             : 1\nFormat                         : AVC\nFormat/Info                    : Advanced Video Codec\nFormat profile                 : &lt;a class=&quot;__cf_email__&quot; href=&quot;/cdn-cgi/l/email-protection&quot; data-cfemail=&quot;c684a7b5a3aaafa8a3868af5e8f6&quot;&gt;[email&amp;#160;protected]&lt;/a&gt;&lt;script cf-hash='f9e31' type=&quot;text/javascript&quot;&gt;\n/* &lt;![CDATA[ */!function(){try{var t=&quot;currentScript&quot;in document?document.currentScript:function(){for(var t=document.getElementsByTagName(&quot;script&quot;),e=t.length;e--;)if(t[e].getAttribute(&quot;cf-hash&quot;))return t[e]}();if(t&amp;&amp;t.previousSibling){var e,r,n,i,c=t.previousSibling,a=c.getAttribute(&quot;data-cfemail&quot;);if(a){for(e=&quot;&quot;,r=parseInt(a.substr(0,2),16),n=2;a.length-n;n+=2)i=parseInt(a.substr(n,2),16)^r,e+=String.fromCharCode(i);e=document.createTextNode(e),c.parentNode.replaceChild(e,c)}}}catch(u){}}();/* ]]&gt; */&lt;/script&gt;\nFormat settings, CABAC         : No\nFormat settings, ReFrames      : 2 frames\nCodec ID                       : avc1\nCodec ID/Info                  : Advanced Video Coding\nDuration                       : 2h 17mn\nBit rate                       : 1 146 Kbps\nWidth                          : 1 152 pixels\nHeight                         : 480 pixels\nDisplay aspect ratio           : 2.40:1\nFrame rate mode                : Variable\nFrame rate                     : 23.976 fps\nMinimum frame rate             : 23.810 fps\nMaximum frame rate             : 30.000 fps\nColor space                    : YUV\nChroma subsampling             : 4:2:0\nBit depth                      : 8 bits\nScan type                      : Progressive\nBits/(Pixel*Frame)             : 0.086\nStream size                    : 1.10 GiB (88%)\nWriting library                : x264 core 130 r2273 b3065e6\n\n\nAudio\nID                             : 2\nFormat                         : AAC\nFormat/Info                    : Advanced Audio Codec\nFormat profile                 : LC\nCodec ID                       : 40\nDuration                       : 2h 17mn\nBit rate mode                  : Variable\nBit rate                       : 160 Kbps\nMaximum bit rate               : 310 Kbps\nChannel(s)                     : 2 channels\nChannel positions              : Front: L R\nSampling rate                  : 48.0 KHz\nCompression mode               : Lossy\nStream size                    : 158 MiB (12%)\nLanguage                       : English","torrent":{"xt":"urn:btih:384d0b7f2caf16136137151a9403be9f1a17f118","amp;dn":"The+Counselor%282013%29.mp4","amp;tr":["udp%3A%2F%2Ftracker.openbittorrent.com%3A80","udp%3A%2F%2Fopen.demonii.com%3A1337","udp%3A%2F%2Ftracker.coppersurfer.tk%3A6969","udp%3A%2F%2Fexodus.desync.com%3A6969"],"infoHash":"384d0b7f2caf16136137151a9403be9f1a17f118","infoHashBuffer":{"type":"Buffer","data":[56,77,11,127,44,175,22,19,97,55,21,26,148,3,190,159,26,23,241,24]},"announce":[],"urlList":[]}}